<?xml version="1.0" encoding="UTF-8" standalone="no"?>
<!-- Generator: Adobe Illustrator 19.1.0, SVG Export Plug-In . SVG Version: 6.00 Build 0)  -->

<svg
   xmlns:dc="http://purl.org/dc/elements/1.1/"
   xmlns:cc="http://creativecommons.org/ns#"
   xmlns:rdf="http://www.w3.org/1999/02/22-rdf-syntax-ns#"
   xmlns:svg="http://www.w3.org/2000/svg"
   xmlns="http://www.w3.org/2000/svg"
   xmlns:sodipodi="http://sodipodi.sourceforge.net/DTD/sodipodi-0.dtd"
   xmlns:inkscape="http://www.inkscape.org/namespaces/inkscape"
   version="1.1"
   x="0px"
   y="0px"
   viewBox="0 0 275 70"
   xml:space="preserve"
   id="svg5409"
   sodipodi:docname="Logo-reversed.svg"
   width="275"
   height="70"
   inkscape:version="0.92.1 r15371"><metadata
     id="metadata5415"><rdf:RDF><cc:Work
         rdf:about=""><dc:format>image/svg+xml</dc:format><dc:type
           rdf:resource="http://purl.org/dc/dcmitype/StillImage" /><dc:title></dc:title></cc:Work></rdf:RDF></metadata><defs
     id="defs5413" /><sodipodi:namedview
     pagecolor="#ffffff"
     bordercolor="#666666"
     borderopacity="1"
     objecttolerance="10"
     gridtolerance="10"
     guidetolerance="10"
     inkscape:pageopacity="0"
     inkscape:pageshadow="2"
     inkscape:window-width="1255"
     inkscape:window-height="848"
     id="namedview5411"
     showgrid="false"
     inkscape:zoom="0.67473608"
     inkscape:cx="460.91967"
     inkscape:cy="58.762113"
     inkscape:window-x="0"
     inkscape:window-y="0"
     inkscape:window-maximized="0"
     inkscape:current-layer="svg5409" /><style
     type="text/css"
     id="style5315">
	.st0{fill:#FFFFFF;}
</style><g
     id="Layer_2"
     transform="translate(0,-156.8)" /><g
     id="Layer_1"
     transform="matrix(0.44107269,0,0,0.44107269,-122.21689,-15.380922)"><g
       id="g5322"><path
         class="st0"
         d="m 389.7,128.9 h -14.2 c -0.1,5.6 -0.4,12.3 -1,18.7 h 12.1 c 1.6,-5.7 2.6,-12.1 3.1,-18.7 M 373,149 h -6.1 v 13.4 h 4.1 c 0.8,-3.3 1.5,-7.8 2,-13.4 m 7.5,13.4 c 2.4,-3.4 4.4,-8 5.9,-13.4 h -11.9 c -0.5,5 -1.1,9.7 -1.9,13.4 z m 19.7,-14.9 c 2.5,-5.7 4.2,-12.1 5.1,-18.7 h -14.2 c -0.5,6.6 -1.5,13 -3,18.7 z M 417,127.4 c 0.7,-3.3 1,-6.7 1,-10.2 0,0 0,-0.1 0,-0.1 h -10.6 v 0.1 c 0,3.4 -0.2,6.8 -0.6,10.2 z m -42.9,1.5 h -7.2 v 18.7 h 6.2 c 0.5,-5.4 0.9,-11.7 1,-18.7 m 0.2,-11.6 v 0 l -7.4,-0.1 v 10.3 h 7.3 c 0,-3.3 0.1,-6.7 0.1,-10.2 m 15.9,0 v 0 l -14.5,-0.1 v 0.1 c 0,1.9 0,5.6 -0.1,10.2 h 14.2 c 0.2,-3.4 0.4,-6.9 0.4,-10.2 m 17.9,30.2 c 4.1,-5.5 7,-11.8 8.6,-18.7 h -10 c -0.9,6.6 -2.5,13 -5,18.7 z m -2.7,-20.1 c 0.4,-3.4 0.6,-6.8 0.6,-10.2 0,0 0,-0.1 0,-0.1 h -14.5 v 0.1 c 0,3.4 -0.1,6.8 -0.4,10.2 z M 367,168.3 c 0.6,0 1.1,0 1.7,0 0.7,-0.6 1.3,-2.1 2,-4.4 h -3.8 v 4.5 h 0.1 z m 12.4,-4.5 h -7.2 c -0.5,1.8 -1,3.3 -1.7,4.4 1.2,-0.1 2.5,-0.2 3.7,-0.4 1.9,-0.8 3.6,-2.2 5.2,-4 m -1.5,3.3 c 3.3,-0.7 6.5,-1.8 9.6,-3.1 0.1,-0.1 0.2,-0.1 0.4,-0.2 h -6.7 c -1.1,1.3 -2.2,2.4 -3.3,3.3 m 9.8,-18.1 c -1.5,5.2 -3.3,9.8 -5.7,13.4 h 7.6 c 4.1,-3.4 7.4,-8 9.9,-13.4 z m 5.3,12.1 c 5.4,-3.2 10.1,-7.3 13.9,-12.2 H 401 c -2,4.7 -4.7,8.9 -8,12.2"
         id="path5318"
         inkscape:connector-curvature="0"
         style="fill:#ffffff" /><path
         class="st0"
         d="M 336.7,98.2 H 351 c 0.2,-5.7 0.4,-12.4 1,-18.9 h -12.3 c -1.5,5.7 -2.5,12.2 -3,18.9 m 16.9,-20.3 h 6.1 V 64.3 h -4.2 c -0.7,3.3 -1.4,7.9 -1.9,13.6 M 346,64.3 c -2.5,3.5 -4.4,8.1 -5.9,13.5 h 12 c 0.5,-5.1 1.1,-9.8 1.9,-13.5 z m -19.9,15 c -2.5,5.7 -4.2,12.2 -5.1,18.9 h 14.3 c 0.6,-6.6 1.5,-13.1 3.1,-18.9 z m -17,20.3 c -0.7,3.3 -1,6.8 -1,10.3 0,0 0,0.1 0,0.1 h 10.7 v -0.1 c 0,-3.4 0.2,-6.9 0.6,-10.3 z m 43.3,-1.4 h 7.3 V 79.3 h -6.3 c -0.4,5.4 -0.8,11.7 -1,18.9 m -0.1,11.7 v 0 l 7.4,0.1 V 99.6 h -7.3 c -0.1,3.3 -0.1,6.7 -0.1,10.3 m -16.1,0 v 0 l 14.6,0.1 v -0.1 c 0,-2 0,-5.7 0.1,-10.3 h -14.4 c -0.1,3.4 -0.3,6.9 -0.3,10.3 m -18,-30.6 c -4.1,5.5 -7.1,11.9 -8.7,18.9 h 10.1 c 0.9,-6.6 2.5,-13.1 5,-18.9 z m 2.6,20.3 c -0.4,3.4 -0.6,6.9 -0.6,10.3 0,0 0,0.1 0,0.1 h 14.6 v -0.1 c 0,-3.4 0.1,-6.9 0.4,-10.3 z m 38.8,-41.2 c -0.6,0 -1.1,0 -1.7,0 -0.7,0.6 -1.3,2.1 -2,4.5 h 3.8 v -4.5 c 0,0 -0.1,0 -0.1,0 m -12.5,4.5 h 7.3 c 0.5,-1.8 1.1,-3.3 1.7,-4.4 -1.3,0.1 -2.5,0.2 -3.7,0.4 -1.9,0.8 -3.7,2.1 -5.3,4 m 1.5,-3.4 c -3.4,0.7 -6.6,1.8 -9.7,3.1 -0.1,0.1 -0.2,0.2 -0.4,0.2 h 6.8 c 1.1,-1.2 2.2,-2.3 3.3,-3.3 m -9.9,18.4 c 1.5,-5.3 3.4,-9.9 5.7,-13.5 h -7.7 c -4.1,3.5 -7.4,8.1 -10,13.5 z m -5.4,-12.3 c -5.4,3.2 -10.2,7.4 -14.1,12.3 h 5.9 c 2.2,-4.7 4.9,-8.9 8.2,-12.3"
         id="path5320"
         inkscape:connector-curvature="0"
         style="fill:#ffffff" /></g><g
       id="g5338"><path
         class="st0"
         d="m 392.2,88.6 c 0.5,-0.2 0.8,-0.7 0.6,-1.2 -0.2,-0.5 -0.7,-0.8 -1.2,-0.6 -0.5,0.2 -0.8,0.7 -0.6,1.2 0.1,0.5 0.6,0.8 1.2,0.6 z"
         id="path5324"
         inkscape:connector-curvature="0"
         style="fill:#ffffff" /><path
         class="st0"
         d="m 381.6,93.5 c -1.7,-0.5 -3.6,1.1 -4,3.5 -0.5,2.4 0.5,4.8 2.2,5.2 1.7,0.4 3.5,-1.1 4.1,-3.6 0.5,-2.4 -0.5,-4.6 -2.3,-5.1 z"
         id="path5326"
         inkscape:connector-curvature="0"
         style="fill:#ffffff" /><path
         class="st0"
         d="m 388.7,95.8 c 1,0.3 2,0.6 3,0.8 1.9,0.3 3.8,0.1 5.6,-0.4 0.8,-0.2 1.5,-0.6 2.2,-1 0.3,-0.2 0.5,-0.3 0.8,-0.5 -1.7,-1 -7.7,-4.6 -8.2,-4.8 -0.3,0.4 -2.7,4.7 -3.4,5.9 z"
         id="path5328"
         inkscape:connector-curvature="0"
         style="fill:#ffffff" /><path
         class="st0"
         d="m 397.4,73.7 c 0.8,-0.2 1.5,-0.6 2.2,-1 0.3,-0.2 0.5,-0.3 0.8,-0.5 -1.7,-1 -7.7,-4.6 -8.2,-4.8 -0.3,0.4 -2.8,4.8 -3.5,6 1,0.3 2,0.6 3,0.7 1.9,0.3 3.8,0.2 5.7,-0.4 z"
         id="path5330"
         inkscape:connector-curvature="0"
         style="fill:#ffffff" /><path
         class="st0"
         d="m 367,58.3 v 51.6 h 51.6 V 58.3 Z m 20.8,14.7 3.6,-6 c -0.6,-0.1 -1.1,-0.6 -1.4,-1.2 -0.3,-1 0.2,-2 1.2,-2.4 1,-0.3 2.1,0.2 2.4,1.2 0.3,0.8 -0.1,1.7 -0.8,2.2 l 8.6,4.9 c 0.2,-0.1 0.5,-0.2 0.7,-0.2 0.9,-0.1 2,0.2 2.4,1.1 0.4,0.8 0.5,2.2 -0.2,3 -0.4,0.5 -0.9,0.9 -1.4,1.3 0.1,-0.6 0.1,-1.2 -0.1,-1.7 -0.2,0.2 -0.4,0.5 -0.7,0.7 0,0.1 -0.1,0.1 -0.1,0.2 0,0.7 -0.2,1.4 -0.7,2.2 -0.7,0.5 -1.4,1 -2.2,1.4 0.5,-0.7 0.8,-1.5 0.8,-2.3 -0.3,0.2 -0.7,0.3 -1,0.5 -0.2,1 -0.9,1.9 -1.7,2.7 -0.9,0.3 -1.8,0.6 -2.8,0.9 0.8,-0.8 1.4,-1.7 1.5,-2.7 -0.3,0.1 -0.7,0.1 -1,0.2 -0.3,1.2 -1.2,2.1 -2.2,2.9 -0.8,0.1 -1.6,0.3 -2.5,0.3 0.9,-0.8 1.7,-1.9 1.8,-3.2 -0.7,-0.1 -0.9,0.2 -1.1,0.8 -0.2,0.5 -0.5,1 -0.9,1.4 -0.4,0.4 -0.9,1 -1.5,1 -0.3,0 -0.6,0 -1,0 -0.7,0 -1.4,-0.1 -2.1,-0.2 2.6,-2.1 4,-5.2 2.4,-9 0,0 0,0.1 0,0 z m -11.1,1.4 c 0.3,-1.7 1.3,-3.2 2.5,-3.9 0.8,-0.5 1.8,-0.7 2.6,-0.4 0.5,0.1 0.9,0.4 1.3,0.6 1.2,0.7 2.3,1.3 3.4,1.8 0.4,0.2 0.6,1.1 0.7,1.4 0.2,0.5 0.3,1.1 0.4,1.7 0.1,1.1 -0.1,2.2 -0.6,3.2 -0.3,0.5 -0.6,1 -0.9,1.4 -0.4,0.4 -0.8,0.8 -1.3,1.1 -0.4,0.2 -0.9,0.4 -1.4,0.2 -1,-0.2 -2.1,-0.4 -3.1,-0.6 -0.2,0 -0.4,0 -0.7,-0.1 -2.3,-0.5 -3.6,-3.4 -2.9,-6.4 z m 8,29.4 c -0.4,0.2 -0.9,0.4 -1.4,0.3 -1,-0.2 -2.1,-0.4 -3.1,-0.7 -0.2,0 -0.4,0 -0.7,-0.1 -2.2,-0.6 -3.5,-3.5 -2.9,-6.4 0.3,-1.7 1.3,-3.2 2.5,-3.9 0.8,-0.5 1.8,-0.7 2.6,-0.4 0.5,0.1 0.9,0.4 1.3,0.6 1.2,0.7 2.3,1.3 3.4,1.8 0.4,0.2 0.6,1.1 0.7,1.4 0.2,0.5 0.3,1.1 0.4,1.7 0.1,1.1 -0.1,2.2 -0.6,3.2 -0.3,0.5 -0.6,1 -0.9,1.4 -0.4,0.4 -0.8,0.8 -1.3,1.1 z m 19.7,-5.7 c -0.4,0.5 -0.9,0.9 -1.4,1.3 0.1,-0.6 0.1,-1.2 -0.1,-1.7 -0.2,0.2 -0.4,0.5 -0.7,0.7 0,0.1 -0.1,0.1 -0.1,0.2 0,0.7 -0.2,1.4 -0.7,2.2 -0.7,0.5 -1.4,1 -2.2,1.4 0.5,-0.7 0.8,-1.5 0.8,-2.3 -0.3,0.2 -0.7,0.3 -1,0.5 -0.2,1 -0.9,1.9 -1.7,2.7 -0.9,0.3 -1.8,0.6 -2.8,0.8 0.8,-0.8 1.4,-1.7 1.5,-2.7 -0.3,0.1 -0.7,0.1 -1,0.2 -0.3,1.2 -1.2,2.1 -2.2,2.9 -0.8,0.2 -1.6,0.2 -2.5,0.3 0.9,-0.8 1.7,-1.9 1.8,-3.2 -0.7,-0.1 -0.9,0.2 -1.1,0.8 -0.2,0.5 -0.5,1 -0.9,1.4 -0.4,0.4 -0.9,1 -1.5,1 -0.3,0 -0.6,0 -1,0 -0.7,0 -1.4,-0.1 -2.1,-0.1 2.4,-2 3.8,-5.1 2.2,-8.9 0,0 0,0 0.1,0 v 0 l 3.6,-6 c -0.6,-0.1 -1.1,-0.6 -1.4,-1.2 -0.3,-1 0.2,-2 1.2,-2.4 1,-0.3 2.1,0.2 2.4,1.2 0.3,0.8 -0.1,1.7 -0.8,2.2 l 8.6,4.9 c 0.2,-0.1 0.5,-0.2 0.7,-0.2 0.9,-0.1 2,0.2 2.4,1.1 0.5,0.8 0.5,2.2 -0.1,2.9 z m 1.4,-2.1 c -0.1,-0.6 -0.3,-1.1 -0.6,-1.7 -0.6,-0.9 -1.6,-1.3 -2.8,-1.3 3.1,-3 4.6,-6.6 5.6,-6.3 0.7,0.2 0.6,4.8 -2.2,9.3 z m 0,-22.5 c -0.1,-0.6 -0.3,-1.1 -0.6,-1.7 -0.6,-0.9 -1.6,-1.3 -2.8,-1.3 3.1,-2.9 4.6,-6.6 5.6,-6.3 0.7,0.2 0.6,4.9 -2.2,9.3 z"
         id="path5332"
         inkscape:connector-curvature="0"
         style="fill:#ffffff" /><path
         class="st0"
         d="m 379.8,79.8 c 1.7,0.5 3.5,-1.1 4.1,-3.6 0.5,-2.5 -0.5,-4.7 -2.2,-5.2 -1.7,-0.5 -3.6,1.1 -4,3.5 -0.7,2.5 0.3,4.8 2.1,5.3 z"
         id="path5334"
         inkscape:connector-curvature="0"
         style="fill:#ffffff" /><path
         class="st0"
         d="m 392.2,66.2 c 0.5,-0.2 0.8,-0.7 0.6,-1.2 -0.2,-0.5 -0.7,-0.8 -1.2,-0.6 -0.5,0.2 -0.8,0.7 -0.6,1.2 0.1,0.5 0.6,0.7 1.2,0.6 z"
         id="path5336"
         inkscape:connector-curvature="0"
         style="fill:#ffffff" /></g><g
       id="g5366"><path
         class="st0"
         d="m 322.6,131.4 c -0.9,0.4 -1.7,0.8 -2.2,0.8 H 318 v 1.1 h 2.4 c 0.8,0 1.6,-0.4 2.7,-0.9 1.2,-0.6 2.6,-1.2 4.1,-1.2 1.9,0 3.6,0.9 3.8,0.9 v -1.2 c -0.7,-0.3 -2.1,-0.8 -3.8,-0.8 -1.8,0 -3.3,0.7 -4.6,1.3 z"
         id="path5340"
         inkscape:connector-curvature="0"
         style="fill:#ffffff" /><path
         class="st0"
         d="m 345.8,152.8 c -1.3,-0.6 -2.9,-1.3 -4.6,-1.3 -1.6,0 -3,0.5 -3.8,0.8 v 1.2 c 0.1,-0.1 1.8,-0.9 3.8,-0.9 1.5,0 2.9,0.6 4.1,1.2 1,0.5 1.9,0.9 2.6,0.9 h 2.4 v -1.1 H 348 c -0.6,-0.1 -1.4,-0.5 -2.2,-0.8 z"
         id="path5342"
         inkscape:connector-curvature="0"
         style="fill:#ffffff" /><path
         class="st0"
         d="m 322.6,135.7 c -0.9,0.4 -1.7,0.8 -2.2,0.8 H 318 v 1.1 h 2.4 c 0.8,0 1.6,-0.4 2.7,-0.9 1.2,-0.6 2.6,-1.2 4.1,-1.2 1.9,0 3.6,0.8 3.8,0.9 v -1.2 c -0.7,-0.3 -2.1,-0.8 -3.8,-0.8 -1.8,0 -3.3,0.7 -4.6,1.3 z"
         id="path5344"
         inkscape:connector-curvature="0"
         style="fill:#ffffff" /><path
         class="st0"
         d="m 322.6,152.8 c -0.9,0.4 -1.7,0.8 -2.2,0.8 H 318 v 1.1 h 2.4 c 0.8,0 1.6,-0.4 2.7,-0.9 1.2,-0.6 2.6,-1.2 4.1,-1.2 1.9,0 3.6,0.8 3.8,0.9 v -1.2 c -0.7,-0.3 -2.1,-0.8 -3.8,-0.8 -1.8,0 -3.3,0.7 -4.6,1.3 z"
         id="path5346"
         inkscape:connector-curvature="0"
         style="fill:#ffffff" /><path
         class="st0"
         d="m 322.6,139.9 c -0.9,0.4 -1.7,0.8 -2.2,0.8 H 318 v 1.1 h 2.4 c 0.8,0 1.6,-0.4 2.7,-0.9 1.2,-0.6 2.6,-1.2 4.1,-1.2 1.9,0 3.6,0.8 3.8,0.9 v -1.2 c -0.7,-0.3 -2.1,-0.8 -3.8,-0.8 -1.8,0 -3.3,0.7 -4.6,1.3 z"
         id="path5348"
         inkscape:connector-curvature="0"
         style="fill:#ffffff" /><path
         class="st0"
         d="m 322.6,148.7 c -0.9,0.4 -1.7,0.8 -2.2,0.8 H 318 v 1.1 h 2.4 c 0.8,0 1.6,-0.4 2.7,-0.9 1.2,-0.6 2.6,-1.2 4.1,-1.2 1.9,0 3.6,0.8 3.8,0.9 v -1.2 c -0.7,-0.3 -2.1,-0.8 -3.8,-0.8 -1.8,0 -3.3,0.7 -4.6,1.3 z"
         id="path5350"
         inkscape:connector-curvature="0"
         style="fill:#ffffff" /><path
         class="st0"
         d="m 345.8,148.7 c -1.3,-0.6 -2.9,-1.3 -4.6,-1.3 -1.6,0 -3,0.5 -3.8,0.8 v 1.2 c 0.1,-0.1 1.8,-0.9 3.8,-0.9 1.5,0 2.9,0.6 4.1,1.2 1,0.5 1.9,0.9 2.6,0.9 h 2.4 v -1.1 H 348 c -0.6,0 -1.4,-0.4 -2.2,-0.8 z"
         id="path5352"
         inkscape:connector-curvature="0"
         style="fill:#ffffff" /><path
         class="st0"
         d="m 322.6,144.2 c -0.9,0.4 -1.7,0.8 -2.2,0.8 H 318 v 1.1 h 2.4 c 0.8,0 1.6,-0.4 2.7,-0.8 1.2,-0.6 2.6,-1.2 4.1,-1.2 1.9,0 3.6,0.8 3.8,0.9 v -1.2 c -0.7,-0.3 -2.1,-0.8 -3.8,-0.8 -1.8,-0.1 -3.3,0.6 -4.6,1.2 z"
         id="path5354"
         inkscape:connector-curvature="0"
         style="fill:#ffffff" /><path
         class="st0"
         d="m 345.8,135.7 c -1.3,-0.6 -2.9,-1.3 -4.6,-1.3 -1.6,0 -3,0.5 -3.8,0.8 v 1.2 c 0.1,-0.1 1.8,-0.9 3.8,-0.9 1.5,0 2.9,0.6 4.1,1.2 1,0.5 1.9,0.9 2.6,0.9 h 2.4 v -1.1 H 348 c -0.6,-0.1 -1.4,-0.4 -2.2,-0.8 z"
         id="path5356"
         inkscape:connector-curvature="0"
         style="fill:#ffffff" /><path
         class="st0"
         d="m 345.8,144.2 c -1.3,-0.6 -2.9,-1.3 -4.6,-1.3 -1.6,0 -3,0.5 -3.8,0.8 v 1.2 c 0.1,-0.1 1.8,-0.9 3.8,-0.9 1.5,0 2.9,0.6 4.1,1.2 1,0.5 1.9,0.8 2.6,0.8 h 2.4 v -1 H 348 c -0.6,0 -1.4,-0.4 -2.2,-0.8 z"
         id="path5358"
         inkscape:connector-curvature="0"
         style="fill:#ffffff" /><path
         class="st0"
         d="m 308.2,117.1 v 51.6 h 51.6 v -51.6 z m 7.5,35.8 h -2.8 c -0.7,0 -1.2,-0.5 -1.2,-1.2 0,-0.7 0.5,-1.2 1.2,-1.2 h 2.8 z m 0,-5.8 h -2.8 c -0.7,0 -1.2,-0.5 -1.2,-1.2 0,-0.6 0.5,-1.2 1.2,-1.2 h 2.8 z m 0,-5.6 h -2.8 c -0.7,0 -1.2,-0.5 -1.2,-1.2 0,-0.7 0.5,-1.2 1.2,-1.2 h 2.8 z m 0,-6 h -2.8 c -0.7,0 -1.2,-0.5 -1.2,-1.2 0,-0.7 0.5,-1.2 1.2,-1.2 h 2.8 z m 17.9,22.8 c -1.1,-0.7 -3.6,-2.1 -5.4,-2.1 -3.2,0 -4.5,2.1 -7.5,2.1 -2,0 -4.4,-0.3 -4.4,-0.3 v -29.8 c 0,0 2.5,0.3 4.4,0.3 2,0 3.9,-1.8 7.4,-1.8 1.9,0 4.4,1.3 5.5,1.9 z m 14,0 c -3,0 -3,-2.1 -7.6,-2.1 -1.9,0 -4.5,1.6 -5.5,2.2 v -29.8 c 1,-0.6 3.6,-2 5.5,-2 3.2,0 5.3,1.8 7.2,1.8 1.9,0 4.7,-0.3 4.7,-0.3 v 29.8 c 0,0.1 -2.4,0.4 -4.3,0.4 z m 7.4,-8.5 h -2.5 v -2.4 h 2.5 c 0.7,0 1.2,0.5 1.2,1.2 0,0.7 -0.5,1.2 -1.2,1.2 z m 0,-5.5 v 0 h -2.5 v -2.4 h 2.5 c 0.7,0 1.2,0.5 1.2,1.2 0,0.6 -0.5,1.2 -1.2,1.2 z m 0,-5.7 h -2.5 v -2.4 h 2.5 v 0 c 0.7,0 1.2,0.5 1.2,1.2 0,0.6 -0.5,1.1 -1.2,1.2 z"
         id="path5360"
         inkscape:connector-curvature="0"
         style="fill:#ffffff" /><path
         class="st0"
         d="m 345.8,131.4 c -1.3,-0.6 -2.9,-1.3 -4.6,-1.3 -1.6,0 -3,0.5 -3.8,0.8 v 1.2 c 0.1,-0.1 1.8,-0.9 3.8,-0.9 1.5,0 2.9,0.6 4.1,1.2 1,0.5 1.9,0.9 2.6,0.9 h 2.4 v -1.1 H 348 c -0.6,0 -1.4,-0.4 -2.2,-0.8 z"
         id="path5362"
         inkscape:connector-curvature="0"
         style="fill:#ffffff" /><path
         class="st0"
         d="m 345.8,139.9 c -1.3,-0.6 -2.9,-1.3 -4.6,-1.3 -1.6,0 -3,0.5 -3.8,0.8 v 1.2 c 0.1,-0.1 1.8,-0.9 3.8,-0.9 1.5,0 2.9,0.6 4.1,1.2 1,0.5 1.9,0.9 2.6,0.9 h 2.4 v -1.1 H 348 c -0.6,0 -1.4,-0.4 -2.2,-0.8 z"
         id="path5364"
         inkscape:connector-curvature="0"
         style="fill:#ffffff" /></g><path
       class="st0"
       d="m 473.6,79.5 c 0,1.6 -0.2,3.2 -0.6,4.7 -0.4,1.5 -1,2.8 -1.9,4 -0.9,1.2 -2,2.1 -3.5,2.8 -1.4,0.7 -3.2,1 -5.3,1 -2.1,0 -3.8,-0.3 -5.3,-1 -1.4,-0.7 -2.6,-1.6 -3.5,-2.8 -0.9,-1.2 -1.5,-2.5 -1.9,-4 -0.4,-1.5 -0.6,-3.1 -0.6,-4.7 V 60.6 h 2.9 v 18.2 c 0,1.1 0.1,2.3 0.3,3.5 0.2,1.2 0.6,2.4 1.2,3.5 0.6,1.1 1.4,1.9 2.5,2.6 1.1,0.7 2.5,1 4.3,1 1.8,0 3.2,-0.3 4.3,-1 1.1,-0.7 1.9,-1.6 2.5,-2.6 0.6,-1.1 1,-2.2 1.2,-3.5 0.2,-1.2 0.3,-2.4 0.3,-3.5 V 60.6 h 2.9 v 18.9 z"
       id="path5368"
       inkscape:connector-curvature="0"
       style="fill:#ffffff" /><path
       class="st0"
       d="m 483.8,60.6 h 3.7 l 18.6,26.8 h 0.1 V 60.6 h 2.9 v 30.6 h -3.7 L 486.8,64.4 h -0.1 v 26.8 h -2.9 z"
       id="path5370"
       inkscape:connector-curvature="0"
       style="fill:#ffffff" /><path
       class="st0"
       d="m 519.6,60.6 h 2.9 v 30.6 h -2.9 z"
       id="path5372"
       inkscape:connector-curvature="0"
       style="fill:#ffffff" /><path
       class="st0"
       d="m 530.1,60.6 h 3.1 l 9.9,26.9 9.9,-26.9 h 3 l -11.6,30.6 h -2.9 z"
       id="path5374"
       inkscape:connector-curvature="0"
       style="fill:#ffffff" /><path
       class="st0"
       d="m 563.5,60.6 h 18.7 v 2.6 h -15.9 v 10.9 h 14.9 v 2.6 h -14.9 v 11.9 h 16.6 v 2.6 h -19.4 z"
       id="path5376"
       inkscape:connector-curvature="0"
       style="fill:#ffffff" /><path
       class="st0"
       d="m 592.6,60.6 h 8 c 0.4,0 1,0 1.6,0 0.7,0 1.4,0.1 2.2,0.3 0.8,0.1 1.6,0.4 2.5,0.7 0.8,0.3 1.6,0.8 2.2,1.4 0.7,0.6 1.2,1.4 1.6,2.3 0.4,0.9 0.6,2 0.6,3.4 0,1.5 -0.3,2.7 -0.8,3.6 -0.5,1 -1.1,1.7 -1.9,2.3 -0.8,0.6 -1.6,1 -2.5,1.3 -0.9,0.3 -1.8,0.5 -2.6,0.6 l 8.9,14.7 h -3.2 l -8.6,-14.5 h -5.3 v 14.5 h -2.9 V 60.6 Z m 2.9,13.5 h 6.1 c 1.5,0 2.7,-0.2 3.7,-0.6 0.9,-0.4 1.7,-0.8 2.2,-1.4 0.5,-0.5 0.9,-1.1 1.1,-1.8 0.2,-0.6 0.3,-1.2 0.3,-1.7 0,-0.5 -0.1,-1.1 -0.3,-1.7 -0.2,-0.6 -0.5,-1.2 -1.1,-1.8 -0.5,-0.5 -1.3,-1 -2.2,-1.4 -0.9,-0.4 -2.2,-0.6 -3.7,-0.6 h -6.1 z"
       id="path5378"
       inkscape:connector-curvature="0"
       style="fill:#ffffff" /><path
       class="st0"
       d="m 622.4,85.6 c 0.7,1.3 1.7,2.3 2.9,2.9 1.2,0.6 2.6,1 4.1,1 1,0 1.8,-0.1 2.7,-0.4 0.8,-0.3 1.6,-0.7 2.2,-1.2 0.6,-0.5 1.1,-1.1 1.5,-1.9 0.4,-0.7 0.5,-1.6 0.5,-2.5 0,-1.1 -0.2,-1.9 -0.7,-2.6 -0.4,-0.7 -1,-1.3 -1.8,-1.7 -0.8,-0.4 -1.6,-0.8 -2.5,-1.1 -0.9,-0.3 -1.9,-0.6 -2.9,-1 -1,-0.3 -2,-0.7 -2.9,-1.1 -0.9,-0.4 -1.8,-0.9 -2.5,-1.6 -0.8,-0.6 -1.3,-1.5 -1.8,-2.4 -0.4,-1 -0.7,-2.2 -0.7,-3.6 0,-1.4 0.3,-2.6 0.8,-3.6 0.5,-1.1 1.3,-1.9 2.2,-2.6 0.9,-0.7 2,-1.2 3.1,-1.6 1.2,-0.4 2.4,-0.5 3.7,-0.5 1.7,0 3.2,0.3 4.7,0.9 1.4,0.6 2.7,1.6 3.7,3 l -2.5,1.8 c -0.7,-1 -1.6,-1.8 -2.5,-2.3 -1,-0.5 -2.1,-0.8 -3.4,-0.8 -0.9,0 -1.8,0.1 -2.6,0.4 -0.8,0.2 -1.6,0.6 -2.2,1.1 -0.6,0.5 -1.1,1.1 -1.5,1.8 -0.4,0.7 -0.6,1.6 -0.6,2.6 0,1.5 0.4,2.7 1.2,3.5 0.8,0.8 1.8,1.5 2.9,1.9 1.2,0.5 2.4,0.9 3.8,1.3 1.4,0.4 2.6,0.8 3.8,1.4 1.2,0.6 2.1,1.4 2.9,2.5 0.8,1.1 1.2,2.6 1.2,4.5 0,1.4 -0.3,2.6 -0.8,3.7 -0.5,1.1 -1.2,2 -2.1,2.7 -0.9,0.7 -1.9,1.3 -3.1,1.7 -1.2,0.4 -2.4,0.6 -3.6,0.6 -2,0 -3.9,-0.3 -5.6,-1.1 -1.7,-0.7 -3.2,-1.9 -4.4,-3.6 z"
       id="path5380"
       inkscape:connector-curvature="0"
       style="fill:#ffffff" /><path
       class="st0"
       d="m 648.7,60.6 h 2.9 v 30.6 h -2.9 z"
       id="path5382"
       inkscape:connector-curvature="0"
       style="fill:#ffffff" /><path
       class="st0"
       d="m 670.2,63.2 h -10.5 v -2.6 h 23.8 v 2.6 H 673 v 28 h -2.9 v -28 z"
       id="path5384"
       inkscape:connector-curvature="0"
       style="fill:#ffffff" /><path
       class="st0"
       d="M 698.7,78.1 687.4,60.7 h 3.4 l 9.3,14.5 9.5,-14.5 h 3.2 l -11.2,17.4 v 13.2 h -2.9 z"
       id="path5386"
       inkscape:connector-curvature="0"
       style="fill:#ffffff" /><path
       class="st0"
       d="m 726.4,81.3 c 0,-1.5 0.3,-2.9 0.8,-4.2 0.5,-1.3 1.2,-2.4 2.2,-3.3 0.9,-0.9 2,-1.7 3.3,-2.2 1.3,-0.5 2.7,-0.8 4.2,-0.8 1.5,0 2.9,0.3 4.2,0.8 1.3,0.5 2.4,1.2 3.3,2.2 0.9,0.9 1.7,2 2.2,3.3 0.5,1.3 0.8,2.7 0.8,4.2 0,1.5 -0.3,2.9 -0.8,4.2 -0.5,1.3 -1.2,2.4 -2.2,3.3 -0.9,0.9 -2,1.7 -3.3,2.2 -1.3,0.5 -2.7,0.8 -4.2,0.8 -1.5,0 -2.9,-0.3 -4.2,-0.8 -1.3,-0.5 -2.4,-1.2 -3.3,-2.2 -0.9,-0.9 -1.6,-2 -2.2,-3.3 -0.6,-1.3 -0.8,-2.7 -0.8,-4.2 z m 2.6,0 c 0,1.1 0.2,2.2 0.5,3.2 0.4,1 0.9,1.9 1.6,2.6 0.7,0.7 1.5,1.3 2.5,1.8 1,0.4 2.1,0.7 3.3,0.7 1.2,0 2.3,-0.2 3.3,-0.7 1,-0.4 1.8,-1 2.5,-1.8 0.7,-0.7 1.2,-1.6 1.6,-2.6 0.4,-1 0.5,-2.1 0.5,-3.2 0,-1.1 -0.2,-2.2 -0.5,-3.2 -0.4,-1 -0.9,-1.9 -1.6,-2.6 -0.7,-0.7 -1.5,-1.3 -2.5,-1.8 -1,-0.4 -2.1,-0.7 -3.3,-0.7 -1.2,0 -2.3,0.2 -3.3,0.7 -1,0.4 -1.8,1 -2.5,1.8 -0.7,0.7 -1.2,1.6 -1.6,2.6 -0.4,1 -0.5,2.1 -0.5,3.2 z"
       id="path5388"
       inkscape:connector-curvature="0"
       style="fill:#ffffff" /><path
       class="st0"
       d="m 756,73.6 h -4.2 v -2.3 h 4.2 v -6.5 c 0,-1.3 0.2,-2.4 0.6,-3.2 0.4,-0.9 0.9,-1.5 1.4,-2.1 0.6,-0.5 1.2,-0.9 1.9,-1.1 0.7,-0.2 1.4,-0.3 2,-0.3 1.2,0 2.2,0.2 3,0.5 l -0.5,2.2 c -0.6,-0.3 -1.4,-0.4 -2.3,-0.4 -2.3,0 -3.5,1.8 -3.5,5.3 v 5.6 h 4.7 v 2.3 h -4.7 V 91.3 H 756 Z"
       id="path5390"
       inkscape:connector-curvature="0"
       style="fill:#ffffff" /><path
       class="st0"
       d="m 451.2,111.1 h 15.9 c 2.1,0 4.2,0.2 6.3,0.5 2.1,0.3 4,1 5.7,2.1 1.7,1.1 3.1,2.5 4.1,4.4 1.1,1.9 1.6,4.4 1.6,7.5 0,2.8 -0.8,5.2 -2.5,7.3 -1.7,2.1 -4.1,3.5 -7.4,4.1 v 0.2 c 1.8,0.2 3.5,0.6 5,1.3 1.5,0.7 2.8,1.6 3.9,2.8 1.1,1.2 1.9,2.6 2.5,4.2 0.6,1.6 0.9,3.4 0.9,5.3 0,3.2 -0.6,5.8 -1.8,7.8 -1.2,2 -2.8,3.6 -4.6,4.7 -1.8,1.1 -3.8,1.9 -6,2.3 -2.2,0.4 -4.2,0.6 -6,0.6 h -17.6 z m 5.1,23.9 H 467 c 2.6,0 4.8,-0.3 6.5,-1 1.7,-0.7 3,-1.4 3.9,-2.4 0.9,-0.9 1.6,-1.9 1.9,-3 0.3,-1.1 0.5,-2 0.5,-2.9 0,-1.9 -0.3,-3.5 -1,-4.8 -0.6,-1.3 -1.5,-2.3 -2.6,-3 -1.1,-0.8 -2.4,-1.3 -3.8,-1.6 -1.5,-0.3 -3,-0.5 -4.6,-0.5 H 456.4 V 135 Z m 0,26.6 h 11.8 c 3,0 5.4,-0.4 7.3,-1.1 1.8,-0.7 3.3,-1.6 4.2,-2.7 1,-1.1 1.6,-2.2 2,-3.5 0.3,-1.2 0.5,-2.3 0.5,-3.3 0,-2 -0.4,-3.8 -1.2,-5.2 -0.8,-1.5 -1.8,-2.6 -3,-3.5 -1.2,-0.9 -2.7,-1.6 -4.2,-2 -1.6,-0.4 -3.2,-0.6 -4.8,-0.6 h -12.5 v 21.9 z"
       id="path5392"
       inkscape:connector-curvature="0"
       style="fill:#ffffff" /><path
       class="st0"
       d="M 499.5,111.1 H 514 c 0.7,0 1.7,0 3,0.1 1.2,0 2.6,0.2 4,0.5 1.5,0.3 2.9,0.7 4.4,1.2 1.5,0.6 2.9,1.4 4,2.5 1.2,1.1 2.2,2.5 3,4.1 0.8,1.7 1.2,3.7 1.2,6.1 0,2.6 -0.5,4.8 -1.4,6.5 -0.9,1.7 -2,3.1 -3.4,4.2 -1.4,1.1 -2.9,1.9 -4.6,2.4 -1.7,0.5 -3.2,0.9 -4.8,1.1 l 16,26.5 h -5.8 l -15.5,-26.2 h -9.6 v 26.2 h -5.1 v -55.2 z m 5.2,24.3 h 10.9 c 2.7,0 4.9,-0.3 6.6,-1 1.7,-0.7 3,-1.5 3.9,-2.5 0.9,-1 1.6,-2.1 1.9,-3.2 0.3,-1.1 0.5,-2.2 0.5,-3.1 0,-0.9 -0.2,-2 -0.5,-3.1 -0.3,-1.1 -1,-2.2 -1.9,-3.2 -0.9,-1 -2.2,-1.8 -3.9,-2.5 -1.7,-0.7 -3.9,-1 -6.6,-1 h -10.9 z"
       id="path5394"
       inkscape:connector-curvature="0"
       style="fill:#ffffff" /><path
       class="st0"
       d="m 567.5,111.1 h 5.3 l 23.2,55.1 h -5.8 l -6,-14.6 H 555 l -6.2,14.6 h -5.4 z m 2.4,5.6 -12.9,30.2 h 25.3 z"
       id="path5396"
       inkscape:connector-curvature="0"
       style="fill:#ffffff" /><path
       class="st0"
       d="m 606.5,111.1 h 17.1 c 4.8,0 8.8,0.6 12.1,1.8 3.3,1.2 6.1,2.7 8.3,4.5 2.2,1.8 3.9,3.8 5.2,6 1.3,2.2 2.2,4.3 2.8,6.3 0.6,2 1,3.9 1.1,5.5 0.2,1.6 0.2,2.8 0.2,3.5 0,0.7 -0.1,1.8 -0.2,3.5 -0.2,1.6 -0.5,3.5 -1.1,5.5 -0.6,2 -1.5,4.1 -2.8,6.3 -1.3,2.2 -3,4.2 -5.2,6 -2.2,1.8 -5,3.3 -8.3,4.5 -3.3,1.2 -7.4,1.8 -12.1,1.8 h -17.1 z m 5.1,50.5 h 10.6 c 3.6,0 7,-0.5 10.2,-1.4 3.2,-0.9 5.9,-2.3 8.3,-4.2 2.3,-1.9 4.2,-4.2 5.5,-7.1 1.3,-2.9 2,-6.3 2,-10.2 0,-3.9 -0.7,-7.4 -2,-10.2 -1.4,-2.9 -3.2,-5.3 -5.5,-7.1 -2.3,-1.9 -5.1,-3.3 -8.3,-4.2 -3.2,-0.9 -6.6,-1.4 -10.2,-1.4 h -10.6 z"
       id="path5398"
       inkscape:connector-curvature="0"
       style="fill:#ffffff" /><path
       class="st0"
       d="m 665.4,111.1 h 33 v 4.7 h -27.9 v 19.6 h 25.9 v 4.7 h -25.9 v 26.2 h -5.1 z"
       id="path5400"
       inkscape:connector-curvature="0"
       style="fill:#ffffff" /><path
       class="st0"
       d="m 709.9,138.7 c 0,-4.2 0.7,-8.1 2.1,-11.6 1.4,-3.5 3.3,-6.6 5.8,-9.1 2.5,-2.6 5.5,-4.6 9,-6 3.5,-1.5 7.4,-2.2 11.6,-2.2 4.2,0 8.1,0.7 11.6,2.2 3.5,1.5 6.5,3.5 9,6 2.5,2.6 4.4,5.6 5.8,9.1 1.4,3.5 2.1,7.4 2.1,11.6 0,4.2 -0.7,8.1 -2.1,11.6 -1.4,3.6 -3.3,6.6 -5.8,9.2 -2.5,2.6 -5.5,4.6 -9,6 -3.5,1.4 -7.4,2.1 -11.6,2.1 -4.2,0 -8.1,-0.7 -11.6,-2.1 -3.5,-1.4 -6.5,-3.4 -9,-6 -2.5,-2.6 -4.4,-5.6 -5.8,-9.2 -1.4,-3.5 -2.1,-7.4 -2.1,-11.6 z m 5.1,0 c 0,3.4 0.5,6.6 1.6,9.6 1.1,3 2.6,5.5 4.7,7.7 2,2.2 4.5,3.9 7.4,5.1 2.9,1.2 6.1,1.9 9.7,1.9 3.6,0 6.8,-0.6 9.7,-1.9 2.9,-1.2 5.3,-3 7.4,-5.1 2,-2.2 3.6,-4.7 4.7,-7.7 1.1,-3 1.6,-6.2 1.6,-9.6 0,-3.4 -0.5,-6.6 -1.6,-9.6 -1.1,-3 -2.6,-5.5 -4.7,-7.7 -2,-2.2 -4.5,-3.9 -7.4,-5.1 -2.9,-1.2 -6.1,-1.9 -9.7,-1.9 -3.6,0 -6.8,0.6 -9.7,1.9 -2.9,1.2 -5.3,3 -7.4,5.1 -2,2.2 -3.6,4.8 -4.7,7.7 -1,3 -1.6,6.2 -1.6,9.6 z"
       id="path5402"
       inkscape:connector-curvature="0"
       style="fill:#ffffff" /><path
       class="st0"
       d="m 780.4,111.1 h 14.5 c 0.7,0 1.7,0 3,0.1 1.2,0 2.6,0.2 4,0.5 1.5,0.3 2.9,0.7 4.4,1.2 1.5,0.6 2.9,1.4 4.1,2.5 1.2,1.1 2.2,2.5 3,4.1 0.8,1.7 1.2,3.7 1.2,6.1 0,2.6 -0.5,4.8 -1.4,6.5 -0.9,1.7 -2,3.1 -3.4,4.2 -1.4,1.1 -2.9,1.9 -4.6,2.4 -1.7,0.5 -3.2,0.9 -4.8,1.1 l 16,26.5 h -5.8 l -15.5,-26.2 h -9.6 v 26.2 h -5.1 z m 5.1,24.3 h 10.9 c 2.7,0 4.9,-0.3 6.6,-1 1.7,-0.7 3,-1.5 3.9,-2.5 0.9,-1 1.6,-2.1 1.9,-3.2 0.3,-1.1 0.5,-2.2 0.5,-3.1 0,-0.9 -0.2,-2 -0.5,-3.1 -0.3,-1.1 -1,-2.2 -1.9,-3.2 -0.9,-1 -2.2,-1.8 -3.9,-2.5 -1.7,-0.7 -3.9,-1 -6.6,-1 h -10.9 z"
       id="path5404"
       inkscape:connector-curvature="0"
       style="fill:#ffffff" /><path
       class="st0"
       d="m 828.1,111.1 h 17.1 c 4.8,0 8.8,0.6 12.1,1.8 3.3,1.2 6.1,2.7 8.3,4.5 2.2,1.8 3.9,3.8 5.2,6 1.3,2.2 2.2,4.3 2.8,6.3 0.6,2 1,3.9 1.1,5.5 0.2,1.6 0.2,2.8 0.2,3.5 0,0.7 -0.1,1.8 -0.2,3.5 -0.2,1.6 -0.5,3.5 -1.1,5.5 -0.6,2 -1.5,4.1 -2.8,6.3 -1.3,2.2 -3,4.2 -5.2,6 -2.2,1.8 -5,3.3 -8.3,4.5 -3.3,1.2 -7.4,1.8 -12.1,1.8 h -17.1 z m 5.2,50.5 h 10.6 c 3.6,0 7,-0.5 10.2,-1.4 3.2,-0.9 5.9,-2.3 8.3,-4.2 2.3,-1.9 4.2,-4.2 5.5,-7.1 1.4,-2.9 2,-6.3 2,-10.2 0,-3.9 -0.7,-7.4 -2,-10.2 -1.4,-2.9 -3.2,-5.3 -5.5,-7.1 -2.3,-1.9 -5.1,-3.3 -8.3,-4.2 -3.2,-0.9 -6.6,-1.4 -10.2,-1.4 h -10.6 z"
       id="path5406"
       inkscape:connector-curvature="0"
       style="fill:#ffffff" /></g></svg>